%TF.GenerationSoftware,KiCad,Pcbnew,8.0.7*%
%TF.CreationDate,2025-02-02T22:53:44+01:00*%
%TF.ProjectId,DTMF-Pic,44544d46-2d50-4696-932e-6b696361645f,rev?*%
%TF.SameCoordinates,Original*%
%TF.FileFunction,Copper,L2,Bot*%
%TF.FilePolarity,Positive*%
%FSLAX46Y46*%
G04 Gerber Fmt 4.6, Leading zero omitted, Abs format (unit mm)*
G04 Created by KiCad (PCBNEW 8.0.7) date 2025-02-02 22:53:44*
%MOMM*%
%LPD*%
G01*
G04 APERTURE LIST*
G04 Aperture macros list*
%AMOutline5P*
0 Free polygon, 5 corners , with rotation*
0 The origin of the aperture is its center*
0 number of corners: always 5*
0 $1 to $10 corner X, Y*
0 $11 Rotation angle, in degrees counterclockwise*
0 create outline with 5 corners*
4,1,5,$1,$2,$3,$4,$5,$6,$7,$8,$9,$10,$1,$2,$11*%
%AMOutline6P*
0 Free polygon, 6 corners , with rotation*
0 The origin of the aperture is its center*
0 number of corners: always 6*
0 $1 to $12 corner X, Y*
0 $13 Rotation angle, in degrees counterclockwise*
0 create outline with 6 corners*
4,1,6,$1,$2,$3,$4,$5,$6,$7,$8,$9,$10,$11,$12,$1,$2,$13*%
%AMOutline7P*
0 Free polygon, 7 corners , with rotation*
0 The origin of the aperture is its center*
0 number of corners: always 7*
0 $1 to $14 corner X, Y*
0 $15 Rotation angle, in degrees counterclockwise*
0 create outline with 7 corners*
4,1,7,$1,$2,$3,$4,$5,$6,$7,$8,$9,$10,$11,$12,$13,$14,$1,$2,$15*%
%AMOutline8P*
0 Free polygon, 8 corners , with rotation*
0 The origin of the aperture is its center*
0 number of corners: always 8*
0 $1 to $16 corner X, Y*
0 $17 Rotation angle, in degrees counterclockwise*
0 create outline with 8 corners*
4,1,8,$1,$2,$3,$4,$5,$6,$7,$8,$9,$10,$11,$12,$13,$14,$15,$16,$1,$2,$17*%
G04 Aperture macros list end*
%TA.AperFunction,ComponentPad*%
%ADD10C,2.000000*%
%TD*%
%TA.AperFunction,ComponentPad*%
%ADD11C,3.000000*%
%TD*%
%TA.AperFunction,ComponentPad*%
%ADD12O,2.540000X1.270000*%
%TD*%
%TA.AperFunction,ComponentPad*%
%ADD13C,2.184400*%
%TD*%
%TA.AperFunction,ComponentPad*%
%ADD14C,1.778000*%
%TD*%
%TA.AperFunction,ComponentPad*%
%ADD15Outline8P,-0.965200X0.399799X-0.399799X0.965200X0.399799X0.965200X0.965200X0.399799X0.965200X-0.399799X0.399799X-0.965200X-0.399799X-0.965200X-0.965200X-0.399799X90.000000*%
%TD*%
%TA.AperFunction,ComponentPad*%
%ADD16C,1.676400*%
%TD*%
%TA.AperFunction,ComponentPad*%
%ADD17C,1.930400*%
%TD*%
%TA.AperFunction,ComponentPad*%
%ADD18C,2.006600*%
%TD*%
%TA.AperFunction,ComponentPad*%
%ADD19C,1.422400*%
%TD*%
%TA.AperFunction,Conductor*%
%ADD20C,0.812800*%
%TD*%
%TA.AperFunction,Conductor*%
%ADD21C,0.609600*%
%TD*%
G04 APERTURE END LIST*
D10*
%TO.P,,2*%
%TO.N,N/C*%
X137500000Y-86000000D03*
%TD*%
%TO.P,,2*%
%TO.N,N/C*%
X132500000Y-86000000D03*
%TD*%
D11*
%TO.P,,1*%
%TO.N,N/C*%
X144500000Y-123500000D03*
%TD*%
%TO.P,,1*%
%TO.N,N/C*%
X153000000Y-123500000D03*
%TD*%
D12*
%TO.P,E$2,14*%
%TO.N,S$10*%
X152152350Y-99923600D03*
%TO.P,E$2,13*%
%TO.N,N/C*%
X152152350Y-102463600D03*
%TO.P,E$2,12*%
%TO.N,S$8*%
X152152350Y-105003600D03*
%TO.P,E$2,11*%
%TO.N,S$11*%
X152152350Y-107543600D03*
%TO.P,E$2,10*%
%TO.N,S$12*%
X152152350Y-110083600D03*
%TO.P,E$2,9*%
%TO.N,S$13*%
X152152350Y-112623600D03*
%TO.P,E$2,5*%
%TO.N,S$20*%
X144532350Y-110083600D03*
%TO.P,E$2,6*%
%TO.N,S$5*%
X144532350Y-112623600D03*
%TO.P,E$2,4*%
%TO.N,N/C*%
X144532350Y-107543600D03*
%TO.P,E$2,3*%
X144532350Y-105003600D03*
%TO.P,E$2,8*%
X152152350Y-115163600D03*
%TO.P,E$2,7*%
%TO.N,S$1*%
X144532350Y-115163600D03*
%TO.P,E$2,2*%
%TO.N,S$9*%
X144532350Y-102463600D03*
%TO.P,E$2,1*%
%TO.N,S$6*%
X144532350Y-99923600D03*
%TD*%
D13*
%TO.P,E$3,4*%
%TO.N,S$20*%
X132784850Y-97701100D03*
%TO.P,E$3,3*%
%TO.N,S$3*%
X132784850Y-92621100D03*
%TO.P,E$3,2*%
%TO.N,S$2*%
X137864850Y-97701100D03*
%TO.P,E$3,1*%
%TO.N,S$16*%
X137864850Y-92621100D03*
%TD*%
D14*
%TO.P,E$4,2*%
%TO.N,S$16*%
X143262350Y-87223600D03*
%TO.P,E$4,1*%
%TO.N,S$6*%
X143262350Y-97383600D03*
%TD*%
%TO.P,E$5,2*%
%TO.N,S$17*%
X155644850Y-89128600D03*
%TO.P,E$5,1*%
%TO.N,S$18*%
X165804850Y-89128600D03*
%TD*%
%TO.P,E$6,2*%
%TO.N,S$7*%
X145484850Y-94526100D03*
%TO.P,E$6,1*%
%TO.N,S$10*%
X155644850Y-94526100D03*
%TD*%
%TO.P,E$8,2*%
%TO.N,S$6*%
X140722350Y-97383600D03*
%TO.P,E$8,1*%
%TO.N,S$20*%
X140722350Y-107543600D03*
%TD*%
D15*
%TO.P,E$9,2*%
%TO.N,S$5*%
X139452350Y-112623600D03*
%TO.P,E$9,1*%
%TO.N,S$1*%
X139452350Y-117703600D03*
%TD*%
D16*
%TO.P,E$11,2*%
%TO.N,S$7*%
X150564850Y-89128600D03*
%TO.P,E$11,3*%
%TO.N,N/C*%
X152165050Y-91033600D03*
%TO.P,E$11,1*%
X148964650Y-91033600D03*
%TD*%
D17*
%TO.P,E$13,2*%
%TO.N,S$20*%
X133737350Y-108178600D03*
D18*
%TO.P,E$13,1*%
%TO.N,S$6*%
X133737350Y-103098600D03*
%TD*%
D12*
%TO.P,E$1,5*%
%TO.N,S$9*%
X165804850Y-107543600D03*
%TO.P,E$1,6*%
%TO.N,S$13*%
X165804850Y-105003600D03*
%TO.P,E$1,4*%
%TO.N,S$15*%
X158184850Y-107543600D03*
%TO.P,E$1,3*%
%TO.N,S$11*%
X158184850Y-105003600D03*
%TO.P,E$1,8*%
%TO.N,N/C*%
X165804850Y-99923600D03*
%TO.P,E$1,7*%
%TO.N,S$12*%
X165804850Y-102463600D03*
%TO.P,E$1,2*%
%TO.N,S$8*%
X158184850Y-102463600D03*
%TO.P,E$1,1*%
%TO.N,S$6*%
X158184850Y-99923600D03*
%TD*%
D14*
%TO.P,E$7,2*%
%TO.N,S$15*%
X156914850Y-109131100D03*
%TO.P,E$7,1*%
%TO.N,S$4*%
X156914850Y-119291100D03*
%TD*%
%TO.P,E$10,2*%
%TO.N,S$6*%
X155644850Y-92303600D03*
%TO.P,E$10,1*%
%TO.N,S$4*%
X165804850Y-92303600D03*
%TD*%
D19*
%TO.P,E$12,P$2*%
%TO.N,S$18*%
X164534850Y-95478600D03*
%TO.P,E$12,P$1*%
%TO.N,S$6*%
X159454850Y-95478600D03*
%TD*%
%TO.P,E$14,P$2*%
%TO.N,N/C*%
X158819850Y-119291100D03*
%TO.P,E$14,P$1*%
%TO.N,S$18*%
X158819850Y-124371100D03*
%TD*%
D20*
%TO.N,S$2*%
X137864850Y-96431100D02*
X137864850Y-97701100D01*
X137500000Y-89810950D02*
X135324850Y-91986100D01*
X135324850Y-91986100D02*
X135324850Y-93891100D01*
X137500000Y-86000000D02*
X137500000Y-89810950D01*
X135324850Y-93891100D02*
X137864850Y-96431100D01*
%TO.N,S$3*%
X132149850Y-91986100D02*
X132149850Y-86350150D01*
X132784850Y-92621100D02*
X132149850Y-91986100D01*
X132149850Y-86350150D02*
X132500000Y-86000000D01*
D21*
%TO.N,S$4*%
X154016634Y-123483366D02*
X156914850Y-120585150D01*
X151876634Y-123483366D02*
X154016634Y-123483366D01*
X156914850Y-120585150D02*
X156914850Y-119291100D01*
%TO.N,S$17*%
X154057350Y-89128600D02*
X155644850Y-89128600D01*
X152152350Y-91033600D02*
X154057350Y-89128600D01*
D20*
%TO.N,S$18*%
X164852350Y-89128600D02*
X165804850Y-89128600D01*
X165804850Y-89128600D02*
X165804850Y-88811100D01*
X166757350Y-89128600D02*
X165804850Y-89128600D01*
X169297350Y-91668600D02*
X166757350Y-89128600D01*
X169297350Y-123101100D02*
X169297350Y-91668600D01*
X165804850Y-126593600D02*
X169297350Y-123101100D01*
X159772350Y-126593600D02*
X165804850Y-126593600D01*
X158819850Y-125641100D02*
X159772350Y-126593600D01*
X158819850Y-125641100D02*
X158819850Y-124371100D01*
X158819850Y-125958600D02*
X158819850Y-125641100D01*
X158184850Y-126593600D02*
X158819850Y-125958600D01*
X163582350Y-90398600D02*
X164852350Y-89128600D01*
X163582350Y-94526100D02*
X163582350Y-90398600D01*
X164534850Y-95478600D02*
X163582350Y-94526100D01*
X164534850Y-98653600D02*
X165804850Y-99923600D01*
X164534850Y-95478600D02*
X164534850Y-98653600D01*
D21*
%TO.N,S$15*%
X156914850Y-108813600D02*
X158184850Y-107543600D01*
X156914850Y-109131100D02*
X156914850Y-108813600D01*
%TO.N,S$13*%
X161042350Y-112623600D02*
X152152350Y-112623600D01*
X163264850Y-110401100D02*
X161042350Y-112623600D01*
X163264850Y-105956100D02*
X163264850Y-110401100D01*
X164217350Y-105003600D02*
X163264850Y-105956100D01*
X165804850Y-105003600D02*
X164217350Y-105003600D01*
%TO.N,S$12*%
X162947350Y-102463600D02*
X165804850Y-102463600D01*
X161994850Y-103416100D02*
X162947350Y-102463600D01*
X161994850Y-108813600D02*
X161994850Y-103416100D01*
X159772350Y-111036100D02*
X161994850Y-108813600D01*
X155327350Y-111036100D02*
X159772350Y-111036100D01*
X154374850Y-110083600D02*
X155327350Y-111036100D01*
X152152350Y-110083600D02*
X154374850Y-110083600D01*
%TO.N,S$11*%
X156597350Y-105003600D02*
X158184850Y-105003600D01*
X154057350Y-107543600D02*
X156597350Y-105003600D01*
X152152350Y-107543600D02*
X154057350Y-107543600D01*
%TO.N,S$8*%
X156279850Y-102463600D02*
X158184850Y-102463600D01*
X153739850Y-105003600D02*
X156279850Y-102463600D01*
X152152350Y-105003600D02*
X153739850Y-105003600D01*
%TO.N,S$5*%
X139452350Y-112623600D02*
X144532350Y-112623600D01*
%TO.N,S$16*%
X148977350Y-89446100D02*
X146754850Y-87223600D01*
X148977350Y-91033600D02*
X148977350Y-89446100D01*
X143262350Y-87223600D02*
X146754850Y-87223600D01*
D20*
X137864850Y-92621100D02*
X143262350Y-87223600D01*
%TO.N,S$6*%
X136277350Y-99923600D02*
X135642350Y-100558600D01*
X135642350Y-99288600D02*
X136277350Y-99923600D01*
X159454850Y-93891100D02*
X159454850Y-95478600D01*
X157867350Y-92303600D02*
X159454850Y-93891100D01*
X159454850Y-98653600D02*
X159454850Y-95478600D01*
X158184850Y-99923600D02*
X159454850Y-98653600D01*
X157867350Y-92303600D02*
X155644850Y-92303600D01*
X159137350Y-91033600D02*
X157867350Y-92303600D01*
X159137350Y-85953600D02*
X159137350Y-91033600D01*
X156597350Y-83413600D02*
X159137350Y-85953600D01*
X135642350Y-99288600D02*
X135642350Y-97383600D01*
X135642350Y-99923600D02*
X135642350Y-99288600D01*
X133102350Y-94843600D02*
X135642350Y-97383600D01*
X129927350Y-94843600D02*
X133102350Y-94843600D01*
X128022350Y-92938600D02*
X129927350Y-94843600D01*
X128022350Y-85636100D02*
X128022350Y-92938600D01*
X130244850Y-83413600D02*
X128022350Y-85636100D01*
X156597350Y-83413600D02*
X130244850Y-83413600D01*
X133737350Y-103098600D02*
X135642350Y-101193600D01*
X135642350Y-100558600D02*
X135642350Y-101193600D01*
X135642350Y-99923600D02*
X135642350Y-100558600D01*
X136277350Y-99923600D02*
X135642350Y-99923600D01*
X140087350Y-99923600D02*
X136277350Y-99923600D01*
X140722350Y-99288600D02*
X140087350Y-99923600D01*
X140722350Y-97383600D02*
X140722350Y-99288600D01*
X143262350Y-97383600D02*
X140722350Y-97383600D01*
D21*
X144532350Y-98653600D02*
X143262350Y-97383600D01*
X144532350Y-99923600D02*
X144532350Y-98653600D01*
%TO.N,S$7*%
X150564850Y-93256100D02*
X150564850Y-89128600D01*
X149294850Y-94526100D02*
X150564850Y-93256100D01*
X149294850Y-94526100D02*
X145484850Y-94526100D01*
%TO.N,S$10*%
X153422350Y-94526100D02*
X155644850Y-94526100D01*
X153422350Y-94526100D02*
X152152350Y-95796100D01*
X152152350Y-99923600D02*
X152152350Y-95796100D01*
%TO.N,S$9*%
X165804850Y-111353600D02*
X165804850Y-107543600D01*
X160089850Y-117068600D02*
X165804850Y-111353600D01*
X150882350Y-117068600D02*
X160089850Y-117068600D01*
X147707350Y-102463600D02*
X144532350Y-102463600D01*
X149294850Y-104051100D02*
X147707350Y-102463600D01*
X149294850Y-115481100D02*
X149294850Y-104051100D01*
X150882350Y-117068600D02*
X149294850Y-115481100D01*
%TO.N,S$1*%
X141992350Y-115163600D02*
X144532350Y-115163600D01*
X139452350Y-117703600D02*
X141992350Y-115163600D01*
D20*
%TO.N,S$20*%
X145167350Y-126593600D02*
X157867350Y-126593600D01*
X144532350Y-125958600D02*
X145167350Y-126593600D01*
X144532350Y-122783600D02*
X144532350Y-125958600D01*
X144532350Y-120878600D02*
X144532350Y-122783600D01*
X147072350Y-118338600D02*
X144532350Y-120878600D01*
X147072350Y-111353600D02*
X147072350Y-118338600D01*
X145802350Y-110083600D02*
X147072350Y-111353600D01*
X144532350Y-110083600D02*
X145802350Y-110083600D01*
X143262350Y-110083600D02*
X144532350Y-110083600D01*
X140722350Y-107543600D02*
X143262350Y-110083600D01*
X140087350Y-108178600D02*
X133737350Y-108178600D01*
X140087350Y-108178600D02*
X140722350Y-107543600D01*
X130244850Y-104686100D02*
X133737350Y-108178600D01*
X130244850Y-100241100D02*
X130244850Y-104686100D01*
X132784850Y-97701100D02*
X130244850Y-100241100D01*
D21*
%TO.N,S$4*%
X168027350Y-94526100D02*
X165804850Y-92303600D01*
X168027350Y-112623600D02*
X168027350Y-94526100D01*
X161359850Y-119291100D02*
X168027350Y-112623600D01*
X156914850Y-119291100D02*
X161359850Y-119291100D01*
%TD*%
M02*
