%TF.GenerationSoftware,KiCad,Pcbnew,9.0.4*%
%TF.CreationDate,2026-02-05T15:02:20+01:00*%
%TF.ProjectId,caca,63616361-2e6b-4696-9361-645f70636258,rev?*%
%TF.SameCoordinates,Original*%
%TF.FileFunction,Soldermask,Bot*%
%TF.FilePolarity,Negative*%
%FSLAX46Y46*%
G04 Gerber Fmt 4.6, Leading zero omitted, Abs format (unit mm)*
G04 Created by KiCad (PCBNEW 9.0.4) date 2026-02-05 15:02:20*
%MOMM*%
%LPD*%
G01*
G04 APERTURE LIST*
G04 Aperture macros list*
%AMRoundRect*
0 Rectangle with rounded corners*
0 $1 Rounding radius*
0 $2 $3 $4 $5 $6 $7 $8 $9 X,Y pos of 4 corners*
0 Add a 4 corners polygon primitive as box body*
4,1,4,$2,$3,$4,$5,$6,$7,$8,$9,$2,$3,0*
0 Add four circle primitives for the rounded corners*
1,1,$1+$1,$2,$3*
1,1,$1+$1,$4,$5*
1,1,$1+$1,$6,$7*
1,1,$1+$1,$8,$9*
0 Add four rect primitives between the rounded corners*
20,1,$1+$1,$2,$3,$4,$5,0*
20,1,$1+$1,$4,$5,$6,$7,0*
20,1,$1+$1,$6,$7,$8,$9,0*
20,1,$1+$1,$8,$9,$2,$3,0*%
%AMFreePoly0*
4,1,25,0.459518,1.047396,0.471641,1.037042,1.037042,0.471641,1.065549,0.415693,1.066800,0.399799,1.066800,-0.399799,1.047396,-0.459518,1.037042,-0.471641,0.471641,-1.037042,0.415693,-1.065549,0.399799,-1.066800,-0.399799,-1.066800,-0.459518,-1.047396,-0.471641,-1.037042,-1.037042,-0.471641,-1.065549,-0.415693,-1.066800,-0.399799,-1.066800,0.399799,-1.047396,0.459518,-1.037042,0.471641,
-0.471641,1.037042,-0.415693,1.065549,-0.399799,1.066800,0.399799,1.066800,0.459518,1.047396,0.459518,1.047396,$1*%
G04 Aperture macros list end*
%ADD10O,2.743200X1.473200*%
%ADD11C,1.703200*%
%ADD12C,1.981200*%
%ADD13C,3.000000*%
%ADD14C,4.000000*%
%ADD15FreePoly0,270.000000*%
%ADD16RoundRect,0.250000X-0.650000X0.412500X-0.650000X-0.412500X0.650000X-0.412500X0.650000X0.412500X0*%
%ADD17RoundRect,0.237500X-0.237500X0.250000X-0.237500X-0.250000X0.237500X-0.250000X0.237500X0.250000X0*%
%ADD18RoundRect,0.237500X-0.250000X-0.237500X0.250000X-0.237500X0.250000X0.237500X-0.250000X0.237500X0*%
%ADD19RoundRect,0.237500X0.250000X0.237500X-0.250000X0.237500X-0.250000X-0.237500X0.250000X-0.237500X0*%
%ADD20RoundRect,0.250000X0.412500X0.650000X-0.412500X0.650000X-0.412500X-0.650000X0.412500X-0.650000X0*%
G04 APERTURE END LIST*
D10*
%TO.C,REF\u002A\u002A*%
X115500000Y-74000000D03*
X115500000Y-76540000D03*
X115500000Y-79080000D03*
X115500000Y-81620000D03*
X115500000Y-84160000D03*
X115500000Y-86700000D03*
X115500000Y-89240000D03*
X123120000Y-89240000D03*
X123120000Y-86700000D03*
X123120000Y-84160000D03*
X123120000Y-81620000D03*
X123120000Y-79080000D03*
X123120000Y-76540000D03*
X123120000Y-74000000D03*
%TD*%
D11*
%TO.C,*%
X132076488Y-79489525D03*
%TD*%
D12*
%TO.C,E$8*%
X111365000Y-83040000D03*
X111365000Y-72880000D03*
%TD*%
D13*
%TO.C,*%
X108500000Y-63500000D03*
%TD*%
D14*
%TO.C,*%
X125887332Y-99000000D03*
%TD*%
D12*
%TO.C,*%
X111365000Y-83040000D03*
%TD*%
D14*
%TO.C,*%
X117387332Y-99000000D03*
%TD*%
D12*
%TO.C,*%
X125777841Y-77428886D03*
%TD*%
%TO.C,*%
X128496346Y-68100262D03*
%TD*%
%TO.C,*%
X106500000Y-69500000D03*
%TD*%
D15*
%TO.C,E$9*%
X106000000Y-86960000D03*
X106000000Y-92040000D03*
%TD*%
D13*
%TO.C,*%
X113500000Y-63500000D03*
%TD*%
D11*
%TO.C,*%
X126162360Y-80464146D03*
%TD*%
D16*
%TO.C,REF\u002A\u002A*%
X129500000Y-91937500D03*
X129500000Y-95062500D03*
%TD*%
D17*
%TO.C,REF\u002A\u002A*%
X127500000Y-87087500D03*
X127500000Y-88912500D03*
%TD*%
D18*
%TO.C,REF\u002A\u002A*%
X122675000Y-95000000D03*
X124500000Y-95000000D03*
%TD*%
D19*
%TO.C,REF\u002A\u002A*%
X132000000Y-66500000D03*
X130175000Y-66500000D03*
%TD*%
D20*
%TO.C,REF\u002A\u002A*%
X131062500Y-77000000D03*
X127937500Y-77000000D03*
%TD*%
D19*
%TO.C,REF\u002A\u002A*%
X130912500Y-74000000D03*
X129087500Y-74000000D03*
%TD*%
M02*
