%TF.GenerationSoftware,KiCad,Pcbnew,9.0.4*%
%TF.CreationDate,2026-02-05T15:02:20+01:00*%
%TF.ProjectId,caca,63616361-2e6b-4696-9361-645f70636258,rev?*%
%TF.SameCoordinates,Original*%
%TF.FileFunction,Copper,L2,Bot*%
%TF.FilePolarity,Positive*%
%FSLAX46Y46*%
G04 Gerber Fmt 4.6, Leading zero omitted, Abs format (unit mm)*
G04 Created by KiCad (PCBNEW 9.0.4) date 2026-02-05 15:02:20*
%MOMM*%
%LPD*%
G01*
G04 APERTURE LIST*
G04 Aperture macros list*
%AMRoundRect*
0 Rectangle with rounded corners*
0 $1 Rounding radius*
0 $2 $3 $4 $5 $6 $7 $8 $9 X,Y pos of 4 corners*
0 Add a 4 corners polygon primitive as box body*
4,1,4,$2,$3,$4,$5,$6,$7,$8,$9,$2,$3,0*
0 Add four circle primitives for the rounded corners*
1,1,$1+$1,$2,$3*
1,1,$1+$1,$4,$5*
1,1,$1+$1,$6,$7*
1,1,$1+$1,$8,$9*
0 Add four rect primitives between the rounded corners*
20,1,$1+$1,$2,$3,$4,$5,0*
20,1,$1+$1,$4,$5,$6,$7,0*
20,1,$1+$1,$6,$7,$8,$9,0*
20,1,$1+$1,$8,$9,$2,$3,0*%
%AMOutline5P*
0 Free polygon, 5 corners , with rotation*
0 The origin of the aperture is its center*
0 number of corners: always 5*
0 $1 to $10 corner X, Y*
0 $11 Rotation angle, in degrees counterclockwise*
0 create outline with 5 corners*
4,1,5,$1,$2,$3,$4,$5,$6,$7,$8,$9,$10,$1,$2,$11*%
%AMOutline6P*
0 Free polygon, 6 corners , with rotation*
0 The origin of the aperture is its center*
0 number of corners: always 6*
0 $1 to $12 corner X, Y*
0 $13 Rotation angle, in degrees counterclockwise*
0 create outline with 6 corners*
4,1,6,$1,$2,$3,$4,$5,$6,$7,$8,$9,$10,$11,$12,$1,$2,$13*%
%AMOutline7P*
0 Free polygon, 7 corners , with rotation*
0 The origin of the aperture is its center*
0 number of corners: always 7*
0 $1 to $14 corner X, Y*
0 $15 Rotation angle, in degrees counterclockwise*
0 create outline with 7 corners*
4,1,7,$1,$2,$3,$4,$5,$6,$7,$8,$9,$10,$11,$12,$13,$14,$1,$2,$15*%
%AMOutline8P*
0 Free polygon, 8 corners , with rotation*
0 The origin of the aperture is its center*
0 number of corners: always 8*
0 $1 to $16 corner X, Y*
0 $17 Rotation angle, in degrees counterclockwise*
0 create outline with 8 corners*
4,1,8,$1,$2,$3,$4,$5,$6,$7,$8,$9,$10,$11,$12,$13,$14,$15,$16,$1,$2,$17*%
G04 Aperture macros list end*
%TA.AperFunction,ComponentPad*%
%ADD10O,2.540000X1.270000*%
%TD*%
%TA.AperFunction,ComponentPad*%
%ADD11C,1.500000*%
%TD*%
%TA.AperFunction,ComponentPad*%
%ADD12C,1.778000*%
%TD*%
%TA.AperFunction,ComponentPad*%
%ADD13C,3.000000*%
%TD*%
%TA.AperFunction,ComponentPad*%
%ADD14C,4.000000*%
%TD*%
%TA.AperFunction,ComponentPad*%
%ADD15Outline8P,-0.965200X0.399799X-0.399799X0.965200X0.399799X0.965200X0.965200X0.399799X0.965200X-0.399799X0.399799X-0.965200X-0.399799X-0.965200X-0.965200X-0.399799X270.000000*%
%TD*%
%TA.AperFunction,SMDPad,CuDef*%
%ADD16RoundRect,0.250000X-0.650000X0.412500X-0.650000X-0.412500X0.650000X-0.412500X0.650000X0.412500X0*%
%TD*%
%TA.AperFunction,SMDPad,CuDef*%
%ADD17RoundRect,0.237500X-0.237500X0.250000X-0.237500X-0.250000X0.237500X-0.250000X0.237500X0.250000X0*%
%TD*%
%TA.AperFunction,SMDPad,CuDef*%
%ADD18RoundRect,0.237500X-0.250000X-0.237500X0.250000X-0.237500X0.250000X0.237500X-0.250000X0.237500X0*%
%TD*%
%TA.AperFunction,SMDPad,CuDef*%
%ADD19RoundRect,0.237500X0.250000X0.237500X-0.250000X0.237500X-0.250000X-0.237500X0.250000X-0.237500X0*%
%TD*%
%TA.AperFunction,SMDPad,CuDef*%
%ADD20RoundRect,0.250000X0.412500X0.650000X-0.412500X0.650000X-0.412500X-0.650000X0.412500X-0.650000X0*%
%TD*%
%TA.AperFunction,Conductor*%
%ADD21C,0.500000*%
%TD*%
%TA.AperFunction,Conductor*%
%ADD22C,1.000000*%
%TD*%
%TA.AperFunction,Conductor*%
%ADD23C,0.800000*%
%TD*%
%TA.AperFunction,Conductor*%
%ADD24C,0.200000*%
%TD*%
G04 APERTURE END LIST*
D10*
%TO.P,REF\u002A\u002A,1*%
%TO.N,N/C*%
X115500000Y-74000000D03*
%TO.P,REF\u002A\u002A,2*%
X115500000Y-76540000D03*
%TO.P,REF\u002A\u002A,3*%
X115500000Y-79080000D03*
%TO.P,REF\u002A\u002A,4*%
X115500000Y-81620000D03*
%TO.P,REF\u002A\u002A,5*%
X115500000Y-84160000D03*
%TO.P,REF\u002A\u002A,6*%
X115500000Y-86700000D03*
%TO.P,REF\u002A\u002A,7*%
X115500000Y-89240000D03*
%TO.P,REF\u002A\u002A,8*%
X123120000Y-89240000D03*
%TO.P,REF\u002A\u002A,9*%
X123120000Y-86700000D03*
%TO.P,REF\u002A\u002A,10*%
X123120000Y-84160000D03*
%TO.P,REF\u002A\u002A,11*%
X123120000Y-81620000D03*
%TO.P,REF\u002A\u002A,12*%
X123120000Y-79080000D03*
%TO.P,REF\u002A\u002A,13*%
X123120000Y-76540000D03*
%TO.P,REF\u002A\u002A,14*%
X123120000Y-74000000D03*
%TD*%
D11*
%TO.P,,2*%
%TO.N,N/C*%
X132076488Y-79489525D03*
%TD*%
D12*
%TO.P,E$8,1*%
%TO.N,N/C*%
X111365000Y-83040000D03*
%TO.P,E$8,2*%
X111365000Y-72880000D03*
%TD*%
D13*
%TO.P,,2*%
%TO.N,N/C*%
X108500000Y-63500000D03*
%TD*%
D14*
%TO.P,,1*%
%TO.N,N/C*%
X125887332Y-99000000D03*
%TD*%
D12*
%TO.P,,1*%
%TO.N,N/C*%
X111365000Y-83040000D03*
%TD*%
D14*
%TO.P,,1*%
%TO.N,N/C*%
X117387332Y-99000000D03*
%TD*%
D12*
%TO.P,,2*%
%TO.N,N/C*%
X125777841Y-77428886D03*
%TD*%
%TO.P,,2*%
%TO.N,N/C*%
X128496346Y-68100262D03*
%TD*%
%TO.P,,2*%
%TO.N,N/C*%
X106500000Y-69500000D03*
%TD*%
D15*
%TO.P,E$9,1*%
%TO.N,N/C*%
X106000000Y-86960000D03*
%TO.P,E$9,2*%
X106000000Y-92040000D03*
%TD*%
D13*
%TO.P,,2*%
%TO.N,N/C*%
X113500000Y-63500000D03*
%TD*%
D11*
%TO.P,,2*%
%TO.N,N/C*%
X126162360Y-80464146D03*
%TD*%
D16*
%TO.P,REF\u002A\u002A,1*%
%TO.N,N/C*%
X129500000Y-91937500D03*
%TO.P,REF\u002A\u002A,2*%
X129500000Y-95062500D03*
%TD*%
D17*
%TO.P,REF\u002A\u002A,1*%
%TO.N,N/C*%
X127500000Y-87087500D03*
%TO.P,REF\u002A\u002A,2*%
X127500000Y-88912500D03*
%TD*%
D18*
%TO.P,REF\u002A\u002A,1*%
%TO.N,N/C*%
X122675000Y-95000000D03*
%TO.P,REF\u002A\u002A,2*%
X124500000Y-95000000D03*
%TD*%
D19*
%TO.P,REF\u002A\u002A,1*%
%TO.N,N/C*%
X132000000Y-66500000D03*
%TO.P,REF\u002A\u002A,2*%
X130175000Y-66500000D03*
%TD*%
D20*
%TO.P,REF\u002A\u002A,1*%
%TO.N,N/C*%
X131062500Y-77000000D03*
%TO.P,REF\u002A\u002A,2*%
X127937500Y-77000000D03*
%TD*%
D19*
%TO.P,REF\u002A\u002A,1*%
%TO.N,N/C*%
X130912500Y-74000000D03*
%TO.P,REF\u002A\u002A,2*%
X129087500Y-74000000D03*
%TD*%
D21*
%TO.N,*%
X129500000Y-80000000D02*
X129500000Y-86837584D01*
D22*
X129000000Y-102000000D02*
X120387332Y-102000000D01*
D21*
X127500000Y-88912500D02*
X129412500Y-88912500D01*
D23*
X122675000Y-95000000D02*
X121000000Y-95000000D01*
D22*
X129087500Y-74000000D02*
X129087500Y-75850000D01*
D23*
X133500000Y-66500000D02*
X133500000Y-69000000D01*
D22*
X129087500Y-75850000D02*
X127937500Y-77000000D01*
D21*
X130241321Y-88547334D02*
X131409067Y-89715080D01*
X106040000Y-92000000D02*
X112740000Y-92000000D01*
D22*
X112485000Y-84160000D02*
X115500000Y-84160000D01*
D23*
X133629795Y-69129795D02*
X133629795Y-90932705D01*
D24*
X130096608Y-66500000D02*
X130175000Y-66500000D01*
D23*
X125500000Y-95000000D02*
X125000000Y-95000000D01*
X131062500Y-77000000D02*
X131062500Y-78475537D01*
D21*
X104500000Y-68500000D02*
X104500000Y-79500000D01*
D23*
X132076488Y-79443632D02*
X132107083Y-79413037D01*
X119000000Y-99000000D02*
X117387332Y-99000000D01*
D21*
X130597127Y-91937500D02*
X129500000Y-91937500D01*
D23*
X130412500Y-68000000D02*
X131500000Y-68000000D01*
X131062500Y-77000000D02*
X131062500Y-76083240D01*
X127500000Y-87087500D02*
X126412500Y-87087500D01*
D22*
X109480000Y-69500000D02*
X120000000Y-69500000D01*
D24*
X111365000Y-83040000D02*
X112040000Y-83040000D01*
D23*
X133629795Y-90932705D02*
X129500000Y-95062500D01*
X132000000Y-67500000D02*
X132000000Y-66500000D01*
X132306925Y-73276034D02*
X130412500Y-71381609D01*
D22*
X111365000Y-83040000D02*
X112485000Y-84160000D01*
X118500000Y-93000000D02*
X118500000Y-84500000D01*
D23*
X126000000Y-87500000D02*
X126000000Y-94500000D01*
D21*
X121000000Y-75500000D02*
X121000000Y-91500000D01*
D23*
X126000000Y-94500000D02*
X125500000Y-95000000D01*
D21*
X125000000Y-79000000D02*
X128500000Y-79000000D01*
X127500000Y-88912500D02*
X127500000Y-97387332D01*
D22*
X106500000Y-69500000D02*
X108500000Y-71500000D01*
D21*
X106000000Y-92040000D02*
X106040000Y-92000000D01*
X129412500Y-88912500D02*
X129500000Y-89000000D01*
D22*
X118160000Y-84160000D02*
X115500000Y-84160000D01*
X108740000Y-71500000D02*
X110120000Y-72880000D01*
D23*
X120500000Y-95500000D02*
X120500000Y-97500000D01*
D21*
X128500000Y-79000000D02*
X129500000Y-80000000D01*
D23*
X132306925Y-74712755D02*
X132306925Y-73276034D01*
D22*
X128496346Y-68100262D02*
X130096608Y-66500000D01*
X110120000Y-72880000D02*
X111365000Y-72880000D01*
D23*
X132076488Y-79489525D02*
X132076488Y-79443632D01*
D21*
X131409067Y-91125560D02*
X130597127Y-91937500D01*
D23*
X127500000Y-87087500D02*
X127500000Y-85239112D01*
D21*
X122500000Y-68940956D02*
X122500000Y-68000000D01*
D22*
X118500000Y-84500000D02*
X118160000Y-84160000D01*
D21*
X125000000Y-91500000D02*
X125000000Y-79000000D01*
D22*
X108740000Y-71500000D02*
X108740000Y-70240000D01*
D23*
X131062500Y-77000000D02*
X131062500Y-75957180D01*
D22*
X126500000Y-72000000D02*
X126500000Y-74000000D01*
D23*
X127508614Y-77428886D02*
X127937500Y-77000000D01*
X127500000Y-85239112D02*
X126162360Y-83901472D01*
D21*
X128231024Y-71731024D02*
X127776947Y-71731024D01*
X119500000Y-71500000D02*
X119500000Y-74000000D01*
X131409067Y-89715080D02*
X131409067Y-91125560D01*
D23*
X121000000Y-95000000D02*
X120500000Y-95500000D01*
D22*
X120387332Y-102000000D02*
X117387332Y-99000000D01*
X129500000Y-95062500D02*
X129500000Y-101500000D01*
X117387332Y-94112668D02*
X118500000Y-93000000D01*
X120000000Y-69500000D02*
X122500000Y-72000000D01*
D21*
X106000000Y-86960000D02*
X106260000Y-86700000D01*
D22*
X122500000Y-72000000D02*
X126500000Y-72000000D01*
D23*
X125000000Y-95000000D02*
X124500000Y-95000000D01*
D21*
X122500000Y-68000000D02*
X105000000Y-68000000D01*
D23*
X120500000Y-97500000D02*
X119000000Y-99000000D01*
D21*
X127500000Y-97387332D02*
X125887332Y-99000000D01*
X105000000Y-68000000D02*
X104500000Y-68500000D01*
X130912500Y-74000000D02*
X129412500Y-72500000D01*
X124430660Y-70871616D02*
X122500000Y-68940956D01*
D23*
X125777841Y-77428886D02*
X127508614Y-77428886D01*
D22*
X108500000Y-71500000D02*
X108740000Y-71500000D01*
X108740000Y-70240000D02*
X109480000Y-69500000D01*
D23*
X131062500Y-75957180D02*
X132306925Y-74712755D01*
D21*
X126943780Y-70897857D02*
X126943780Y-70871616D01*
X112740000Y-92000000D02*
X115500000Y-89240000D01*
X111000000Y-79500000D02*
X113241592Y-77258408D01*
X119500000Y-74000000D02*
X121000000Y-75500000D01*
X129000000Y-72500000D02*
X128231024Y-71731024D01*
D23*
X126412500Y-87087500D02*
X126000000Y-87500000D01*
D21*
X127776947Y-71731024D02*
X126943780Y-70897857D01*
D23*
X126162360Y-83901472D02*
X126162360Y-80464146D01*
D21*
X113500000Y-71500000D02*
X119500000Y-71500000D01*
D23*
X133500000Y-69000000D02*
X133629795Y-69129795D01*
D21*
X106260000Y-86700000D02*
X115260000Y-86700000D01*
D23*
X132000000Y-66500000D02*
X133500000Y-66500000D01*
D21*
X121000000Y-91500000D02*
X125000000Y-91500000D01*
X129500000Y-89000000D02*
X129500000Y-91937500D01*
D22*
X117387332Y-99000000D02*
X117387332Y-94112668D01*
D21*
X113241592Y-77258408D02*
X113241592Y-71758408D01*
D22*
X126500000Y-74000000D02*
X129087500Y-74000000D01*
D21*
X129412500Y-72500000D02*
X129000000Y-72500000D01*
D22*
X129500000Y-101500000D02*
X129000000Y-102000000D01*
D21*
X126943780Y-70871616D02*
X124430660Y-70871616D01*
D23*
X130412500Y-71381609D02*
X130412500Y-68000000D01*
D21*
X104500000Y-79500000D02*
X111000000Y-79500000D01*
D23*
X131062500Y-78475537D02*
X132076488Y-79489525D01*
D21*
X130241321Y-87578905D02*
X130241321Y-88547334D01*
X129500000Y-86837584D02*
X130241321Y-87578905D01*
D23*
X131500000Y-68000000D02*
X132000000Y-67500000D01*
D21*
X113241592Y-71758408D02*
X113500000Y-71500000D01*
%TD*%
M02*
