%TF.GenerationSoftware,KiCad,Pcbnew,9.0.4*%
%TF.CreationDate,2026-02-05T15:02:20+01:00*%
%TF.ProjectId,caca,63616361-2e6b-4696-9361-645f70636258,rev?*%
%TF.SameCoordinates,Original*%
%TF.FileFunction,Copper,L1,Top*%
%TF.FilePolarity,Positive*%
%FSLAX46Y46*%
G04 Gerber Fmt 4.6, Leading zero omitted, Abs format (unit mm)*
G04 Created by KiCad (PCBNEW 9.0.4) date 2026-02-05 15:02:20*
%MOMM*%
%LPD*%
G01*
G04 APERTURE LIST*
G04 Aperture macros list*
%AMRoundRect*
0 Rectangle with rounded corners*
0 $1 Rounding radius*
0 $2 $3 $4 $5 $6 $7 $8 $9 X,Y pos of 4 corners*
0 Add a 4 corners polygon primitive as box body*
4,1,4,$2,$3,$4,$5,$6,$7,$8,$9,$2,$3,0*
0 Add four circle primitives for the rounded corners*
1,1,$1+$1,$2,$3*
1,1,$1+$1,$4,$5*
1,1,$1+$1,$6,$7*
1,1,$1+$1,$8,$9*
0 Add four rect primitives between the rounded corners*
20,1,$1+$1,$2,$3,$4,$5,0*
20,1,$1+$1,$4,$5,$6,$7,0*
20,1,$1+$1,$6,$7,$8,$9,0*
20,1,$1+$1,$8,$9,$2,$3,0*%
%AMOutline5P*
0 Free polygon, 5 corners , with rotation*
0 The origin of the aperture is its center*
0 number of corners: always 5*
0 $1 to $10 corner X, Y*
0 $11 Rotation angle, in degrees counterclockwise*
0 create outline with 5 corners*
4,1,5,$1,$2,$3,$4,$5,$6,$7,$8,$9,$10,$1,$2,$11*%
%AMOutline6P*
0 Free polygon, 6 corners , with rotation*
0 The origin of the aperture is its center*
0 number of corners: always 6*
0 $1 to $12 corner X, Y*
0 $13 Rotation angle, in degrees counterclockwise*
0 create outline with 6 corners*
4,1,6,$1,$2,$3,$4,$5,$6,$7,$8,$9,$10,$11,$12,$1,$2,$13*%
%AMOutline7P*
0 Free polygon, 7 corners , with rotation*
0 The origin of the aperture is its center*
0 number of corners: always 7*
0 $1 to $14 corner X, Y*
0 $15 Rotation angle, in degrees counterclockwise*
0 create outline with 7 corners*
4,1,7,$1,$2,$3,$4,$5,$6,$7,$8,$9,$10,$11,$12,$13,$14,$1,$2,$15*%
%AMOutline8P*
0 Free polygon, 8 corners , with rotation*
0 The origin of the aperture is its center*
0 number of corners: always 8*
0 $1 to $16 corner X, Y*
0 $17 Rotation angle, in degrees counterclockwise*
0 create outline with 8 corners*
4,1,8,$1,$2,$3,$4,$5,$6,$7,$8,$9,$10,$11,$12,$13,$14,$15,$16,$1,$2,$17*%
G04 Aperture macros list end*
%ADD10C,0.300000*%
%TA.AperFunction,NonConductor*%
%ADD11C,0.300000*%
%TD*%
%TA.AperFunction,NonConductor*%
%ADD12C,0.200000*%
%TD*%
%TA.AperFunction,SMDPad,CuDef*%
%ADD13R,0.889000X0.812800*%
%TD*%
%TA.AperFunction,ComponentPad*%
%ADD14O,2.540000X1.270000*%
%TD*%
%TA.AperFunction,ComponentPad*%
%ADD15C,1.500000*%
%TD*%
%TA.AperFunction,ComponentPad*%
%ADD16C,1.778000*%
%TD*%
%TA.AperFunction,ComponentPad*%
%ADD17C,3.000000*%
%TD*%
%TA.AperFunction,ComponentPad*%
%ADD18C,4.000000*%
%TD*%
%TA.AperFunction,SMDPad,CuDef*%
%ADD19RoundRect,0.250000X-0.550000X1.637500X-0.550000X-1.637500X0.550000X-1.637500X0.550000X1.637500X0*%
%TD*%
%TA.AperFunction,SMDPad,CuDef*%
%ADD20R,0.558800X2.286000*%
%TD*%
%TA.AperFunction,SMDPad,CuDef*%
%ADD21RoundRect,0.237500X0.237500X-0.250000X0.237500X0.250000X-0.237500X0.250000X-0.237500X-0.250000X0*%
%TD*%
%TA.AperFunction,SMDPad,CuDef*%
%ADD22RoundRect,0.237500X-0.237500X0.250000X-0.237500X-0.250000X0.237500X-0.250000X0.237500X0.250000X0*%
%TD*%
%TA.AperFunction,ComponentPad*%
%ADD23Outline8P,-0.965200X0.399799X-0.399799X0.965200X0.399799X0.965200X0.965200X0.399799X0.965200X-0.399799X0.399799X-0.965200X-0.399799X-0.965200X-0.965200X-0.399799X270.000000*%
%TD*%
%TA.AperFunction,SMDPad,CuDef*%
%ADD24R,2.108200X0.762000*%
%TD*%
%TA.AperFunction,Conductor*%
%ADD25C,0.500000*%
%TD*%
%TA.AperFunction,Conductor*%
%ADD26C,0.900000*%
%TD*%
%TA.AperFunction,Conductor*%
%ADD27C,0.200000*%
%TD*%
%TA.AperFunction,Conductor*%
%ADD28C,1.000000*%
%TD*%
%TA.AperFunction,Conductor*%
%ADD29C,0.800000*%
%TD*%
%TA.AperFunction,Conductor*%
%ADD30C,0.300000*%
%TD*%
G04 APERTURE END LIST*
D10*
D11*
X126554510Y-65229400D02*
X127697368Y-65229400D01*
D10*
D11*
X111750001Y-51878328D02*
X112678573Y-51878328D01*
X112678573Y-51878328D02*
X112178573Y-52449757D01*
X112178573Y-52449757D02*
X112392858Y-52449757D01*
X112392858Y-52449757D02*
X112535716Y-52521185D01*
X112535716Y-52521185D02*
X112607144Y-52592614D01*
X112607144Y-52592614D02*
X112678573Y-52735471D01*
X112678573Y-52735471D02*
X112678573Y-53092614D01*
X112678573Y-53092614D02*
X112607144Y-53235471D01*
X112607144Y-53235471D02*
X112535716Y-53306900D01*
X112535716Y-53306900D02*
X112392858Y-53378328D01*
X112392858Y-53378328D02*
X111964287Y-53378328D01*
X111964287Y-53378328D02*
X111821430Y-53306900D01*
X111821430Y-53306900D02*
X111750001Y-53235471D01*
X114107144Y-53378328D02*
X113250001Y-53378328D01*
X113678572Y-53378328D02*
X113678572Y-51878328D01*
X113678572Y-51878328D02*
X113535715Y-52092614D01*
X113535715Y-52092614D02*
X113392858Y-52235471D01*
X113392858Y-52235471D02*
X113250001Y-52306900D01*
X114821429Y-53306900D02*
X114821429Y-53378328D01*
X114821429Y-53378328D02*
X114750000Y-53521185D01*
X114750000Y-53521185D02*
X114678572Y-53592614D01*
X115750001Y-51878328D02*
X115892858Y-51878328D01*
X115892858Y-51878328D02*
X116035715Y-51949757D01*
X116035715Y-51949757D02*
X116107144Y-52021185D01*
X116107144Y-52021185D02*
X116178572Y-52164042D01*
X116178572Y-52164042D02*
X116250001Y-52449757D01*
X116250001Y-52449757D02*
X116250001Y-52806900D01*
X116250001Y-52806900D02*
X116178572Y-53092614D01*
X116178572Y-53092614D02*
X116107144Y-53235471D01*
X116107144Y-53235471D02*
X116035715Y-53306900D01*
X116035715Y-53306900D02*
X115892858Y-53378328D01*
X115892858Y-53378328D02*
X115750001Y-53378328D01*
X115750001Y-53378328D02*
X115607144Y-53306900D01*
X115607144Y-53306900D02*
X115535715Y-53235471D01*
X115535715Y-53235471D02*
X115464286Y-53092614D01*
X115464286Y-53092614D02*
X115392858Y-52806900D01*
X115392858Y-52806900D02*
X115392858Y-52449757D01*
X115392858Y-52449757D02*
X115464286Y-52164042D01*
X115464286Y-52164042D02*
X115535715Y-52021185D01*
X115535715Y-52021185D02*
X115607144Y-51949757D01*
X115607144Y-51949757D02*
X115750001Y-51878328D01*
X117178572Y-51878328D02*
X117321429Y-51878328D01*
X117321429Y-51878328D02*
X117464286Y-51949757D01*
X117464286Y-51949757D02*
X117535715Y-52021185D01*
X117535715Y-52021185D02*
X117607143Y-52164042D01*
X117607143Y-52164042D02*
X117678572Y-52449757D01*
X117678572Y-52449757D02*
X117678572Y-52806900D01*
X117678572Y-52806900D02*
X117607143Y-53092614D01*
X117607143Y-53092614D02*
X117535715Y-53235471D01*
X117535715Y-53235471D02*
X117464286Y-53306900D01*
X117464286Y-53306900D02*
X117321429Y-53378328D01*
X117321429Y-53378328D02*
X117178572Y-53378328D01*
X117178572Y-53378328D02*
X117035715Y-53306900D01*
X117035715Y-53306900D02*
X116964286Y-53235471D01*
X116964286Y-53235471D02*
X116892857Y-53092614D01*
X116892857Y-53092614D02*
X116821429Y-52806900D01*
X116821429Y-52806900D02*
X116821429Y-52449757D01*
X116821429Y-52449757D02*
X116892857Y-52164042D01*
X116892857Y-52164042D02*
X116964286Y-52021185D01*
X116964286Y-52021185D02*
X117035715Y-51949757D01*
X117035715Y-51949757D02*
X117178572Y-51878328D01*
X118607143Y-51878328D02*
X118750000Y-51878328D01*
X118750000Y-51878328D02*
X118892857Y-51949757D01*
X118892857Y-51949757D02*
X118964286Y-52021185D01*
X118964286Y-52021185D02*
X119035714Y-52164042D01*
X119035714Y-52164042D02*
X119107143Y-52449757D01*
X119107143Y-52449757D02*
X119107143Y-52806900D01*
X119107143Y-52806900D02*
X119035714Y-53092614D01*
X119035714Y-53092614D02*
X118964286Y-53235471D01*
X118964286Y-53235471D02*
X118892857Y-53306900D01*
X118892857Y-53306900D02*
X118750000Y-53378328D01*
X118750000Y-53378328D02*
X118607143Y-53378328D01*
X118607143Y-53378328D02*
X118464286Y-53306900D01*
X118464286Y-53306900D02*
X118392857Y-53235471D01*
X118392857Y-53235471D02*
X118321428Y-53092614D01*
X118321428Y-53092614D02*
X118250000Y-52806900D01*
X118250000Y-52806900D02*
X118250000Y-52449757D01*
X118250000Y-52449757D02*
X118321428Y-52164042D01*
X118321428Y-52164042D02*
X118392857Y-52021185D01*
X118392857Y-52021185D02*
X118464286Y-51949757D01*
X118464286Y-51949757D02*
X118607143Y-51878328D01*
X120035714Y-51878328D02*
X120178571Y-51878328D01*
X120178571Y-51878328D02*
X120321428Y-51949757D01*
X120321428Y-51949757D02*
X120392857Y-52021185D01*
X120392857Y-52021185D02*
X120464285Y-52164042D01*
X120464285Y-52164042D02*
X120535714Y-52449757D01*
X120535714Y-52449757D02*
X120535714Y-52806900D01*
X120535714Y-52806900D02*
X120464285Y-53092614D01*
X120464285Y-53092614D02*
X120392857Y-53235471D01*
X120392857Y-53235471D02*
X120321428Y-53306900D01*
X120321428Y-53306900D02*
X120178571Y-53378328D01*
X120178571Y-53378328D02*
X120035714Y-53378328D01*
X120035714Y-53378328D02*
X119892857Y-53306900D01*
X119892857Y-53306900D02*
X119821428Y-53235471D01*
X119821428Y-53235471D02*
X119749999Y-53092614D01*
X119749999Y-53092614D02*
X119678571Y-52806900D01*
X119678571Y-52806900D02*
X119678571Y-52449757D01*
X119678571Y-52449757D02*
X119749999Y-52164042D01*
X119749999Y-52164042D02*
X119821428Y-52021185D01*
X119821428Y-52021185D02*
X119892857Y-51949757D01*
X119892857Y-51949757D02*
X120035714Y-51878328D01*
X122321427Y-53378328D02*
X122321427Y-52378328D01*
X122321427Y-52521185D02*
X122392856Y-52449757D01*
X122392856Y-52449757D02*
X122535713Y-52378328D01*
X122535713Y-52378328D02*
X122749999Y-52378328D01*
X122749999Y-52378328D02*
X122892856Y-52449757D01*
X122892856Y-52449757D02*
X122964285Y-52592614D01*
X122964285Y-52592614D02*
X122964285Y-53378328D01*
X122964285Y-52592614D02*
X123035713Y-52449757D01*
X123035713Y-52449757D02*
X123178570Y-52378328D01*
X123178570Y-52378328D02*
X123392856Y-52378328D01*
X123392856Y-52378328D02*
X123535713Y-52449757D01*
X123535713Y-52449757D02*
X123607142Y-52592614D01*
X123607142Y-52592614D02*
X123607142Y-53378328D01*
X124321427Y-53378328D02*
X124321427Y-52378328D01*
X124321427Y-52521185D02*
X124392856Y-52449757D01*
X124392856Y-52449757D02*
X124535713Y-52378328D01*
X124535713Y-52378328D02*
X124749999Y-52378328D01*
X124749999Y-52378328D02*
X124892856Y-52449757D01*
X124892856Y-52449757D02*
X124964285Y-52592614D01*
X124964285Y-52592614D02*
X124964285Y-53378328D01*
X124964285Y-52592614D02*
X125035713Y-52449757D01*
X125035713Y-52449757D02*
X125178570Y-52378328D01*
X125178570Y-52378328D02*
X125392856Y-52378328D01*
X125392856Y-52378328D02*
X125535713Y-52449757D01*
X125535713Y-52449757D02*
X125607142Y-52592614D01*
X125607142Y-52592614D02*
X125607142Y-53378328D01*
D12*
X103250000Y-60000000D02*
X103250000Y-53913580D01*
X134250000Y-60000000D02*
X134250000Y-53913580D01*
X103250000Y-54500000D02*
X134250000Y-54500000D01*
X103250000Y-54500000D02*
X104376504Y-53913579D01*
X103250000Y-54500000D02*
X104376504Y-55086421D01*
X134250000Y-54500000D02*
X133123496Y-55086421D01*
X134250000Y-54500000D02*
X133123496Y-53913579D01*
D10*
D11*
X88878328Y-88110094D02*
X89878328Y-88110094D01*
X88306900Y-88467236D02*
X89378328Y-88824379D01*
X89378328Y-88824379D02*
X89378328Y-87895808D01*
X88521185Y-87395808D02*
X88449757Y-87324380D01*
X88449757Y-87324380D02*
X88378328Y-87181523D01*
X88378328Y-87181523D02*
X88378328Y-86824380D01*
X88378328Y-86824380D02*
X88449757Y-86681523D01*
X88449757Y-86681523D02*
X88521185Y-86610094D01*
X88521185Y-86610094D02*
X88664042Y-86538665D01*
X88664042Y-86538665D02*
X88806900Y-86538665D01*
X88806900Y-86538665D02*
X89021185Y-86610094D01*
X89021185Y-86610094D02*
X89878328Y-87467237D01*
X89878328Y-87467237D02*
X89878328Y-86538665D01*
X89806900Y-85824380D02*
X89878328Y-85824380D01*
X89878328Y-85824380D02*
X90021185Y-85895809D01*
X90021185Y-85895809D02*
X90092614Y-85967237D01*
X88378328Y-85324380D02*
X88378328Y-84324380D01*
X88378328Y-84324380D02*
X89878328Y-84967237D01*
X89878328Y-83681523D02*
X89878328Y-83395809D01*
X89878328Y-83395809D02*
X89806900Y-83252952D01*
X89806900Y-83252952D02*
X89735471Y-83181523D01*
X89735471Y-83181523D02*
X89521185Y-83038666D01*
X89521185Y-83038666D02*
X89235471Y-82967237D01*
X89235471Y-82967237D02*
X88664042Y-82967237D01*
X88664042Y-82967237D02*
X88521185Y-83038666D01*
X88521185Y-83038666D02*
X88449757Y-83110095D01*
X88449757Y-83110095D02*
X88378328Y-83252952D01*
X88378328Y-83252952D02*
X88378328Y-83538666D01*
X88378328Y-83538666D02*
X88449757Y-83681523D01*
X88449757Y-83681523D02*
X88521185Y-83752952D01*
X88521185Y-83752952D02*
X88664042Y-83824380D01*
X88664042Y-83824380D02*
X89021185Y-83824380D01*
X89021185Y-83824380D02*
X89164042Y-83752952D01*
X89164042Y-83752952D02*
X89235471Y-83681523D01*
X89235471Y-83681523D02*
X89306900Y-83538666D01*
X89306900Y-83538666D02*
X89306900Y-83252952D01*
X89306900Y-83252952D02*
X89235471Y-83110095D01*
X89235471Y-83110095D02*
X89164042Y-83038666D01*
X89164042Y-83038666D02*
X89021185Y-82967237D01*
X89878328Y-81538666D02*
X89878328Y-82395809D01*
X89878328Y-81967238D02*
X88378328Y-81967238D01*
X88378328Y-81967238D02*
X88592614Y-82110095D01*
X88592614Y-82110095D02*
X88735471Y-82252952D01*
X88735471Y-82252952D02*
X88806900Y-82395809D01*
X88378328Y-80252953D02*
X88378328Y-80538667D01*
X88378328Y-80538667D02*
X88449757Y-80681524D01*
X88449757Y-80681524D02*
X88521185Y-80752953D01*
X88521185Y-80752953D02*
X88735471Y-80895810D01*
X88735471Y-80895810D02*
X89021185Y-80967238D01*
X89021185Y-80967238D02*
X89592614Y-80967238D01*
X89592614Y-80967238D02*
X89735471Y-80895810D01*
X89735471Y-80895810D02*
X89806900Y-80824381D01*
X89806900Y-80824381D02*
X89878328Y-80681524D01*
X89878328Y-80681524D02*
X89878328Y-80395810D01*
X89878328Y-80395810D02*
X89806900Y-80252953D01*
X89806900Y-80252953D02*
X89735471Y-80181524D01*
X89735471Y-80181524D02*
X89592614Y-80110095D01*
X89592614Y-80110095D02*
X89235471Y-80110095D01*
X89235471Y-80110095D02*
X89092614Y-80181524D01*
X89092614Y-80181524D02*
X89021185Y-80252953D01*
X89021185Y-80252953D02*
X88949757Y-80395810D01*
X88949757Y-80395810D02*
X88949757Y-80681524D01*
X88949757Y-80681524D02*
X89021185Y-80824381D01*
X89021185Y-80824381D02*
X89092614Y-80895810D01*
X89092614Y-80895810D02*
X89235471Y-80967238D01*
X89878328Y-78324382D02*
X88878328Y-78324382D01*
X89021185Y-78324382D02*
X88949757Y-78252953D01*
X88949757Y-78252953D02*
X88878328Y-78110096D01*
X88878328Y-78110096D02*
X88878328Y-77895810D01*
X88878328Y-77895810D02*
X88949757Y-77752953D01*
X88949757Y-77752953D02*
X89092614Y-77681525D01*
X89092614Y-77681525D02*
X89878328Y-77681525D01*
X89092614Y-77681525D02*
X88949757Y-77610096D01*
X88949757Y-77610096D02*
X88878328Y-77467239D01*
X88878328Y-77467239D02*
X88878328Y-77252953D01*
X88878328Y-77252953D02*
X88949757Y-77110096D01*
X88949757Y-77110096D02*
X89092614Y-77038667D01*
X89092614Y-77038667D02*
X89878328Y-77038667D01*
X89878328Y-76324382D02*
X88878328Y-76324382D01*
X89021185Y-76324382D02*
X88949757Y-76252953D01*
X88949757Y-76252953D02*
X88878328Y-76110096D01*
X88878328Y-76110096D02*
X88878328Y-75895810D01*
X88878328Y-75895810D02*
X88949757Y-75752953D01*
X88949757Y-75752953D02*
X89092614Y-75681525D01*
X89092614Y-75681525D02*
X89878328Y-75681525D01*
X89092614Y-75681525D02*
X88949757Y-75610096D01*
X88949757Y-75610096D02*
X88878328Y-75467239D01*
X88878328Y-75467239D02*
X88878328Y-75252953D01*
X88878328Y-75252953D02*
X88949757Y-75110096D01*
X88949757Y-75110096D02*
X89092614Y-75038667D01*
X89092614Y-75038667D02*
X89878328Y-75038667D01*
D12*
X102750000Y-60500000D02*
X90413580Y-60500000D01*
X102750000Y-103291619D02*
X90413580Y-103291619D01*
X91000000Y-60500000D02*
X91000000Y-103291619D01*
X91000000Y-60500000D02*
X91586421Y-61626504D01*
X91000000Y-60500000D02*
X90413579Y-61626504D01*
X91000000Y-103291619D02*
X90413579Y-102165115D01*
X91000000Y-103291619D02*
X91586421Y-102165115D01*
D13*
%TO.P,REF\u002A\u002A,1*%
%TO.N,N/C*%
X127944999Y-72524999D03*
%TO.P,REF\u002A\u002A,2*%
X127944999Y-70475001D03*
%TO.P,REF\u002A\u002A,3*%
X126055000Y-71500000D03*
%TD*%
D14*
%TO.P,REF\u002A\u002A,1*%
%TO.N,N/C*%
X115500000Y-74000000D03*
%TO.P,REF\u002A\u002A,2*%
X115500000Y-76540000D03*
%TO.P,REF\u002A\u002A,3*%
X115500000Y-79080000D03*
%TO.P,REF\u002A\u002A,4*%
X115500000Y-81620000D03*
%TO.P,REF\u002A\u002A,5*%
X115500000Y-84160000D03*
%TO.P,REF\u002A\u002A,6*%
X115500000Y-86700000D03*
%TO.P,REF\u002A\u002A,7*%
X115500000Y-89240000D03*
%TO.P,REF\u002A\u002A,8*%
X123120000Y-89240000D03*
%TO.P,REF\u002A\u002A,9*%
X123120000Y-86700000D03*
%TO.P,REF\u002A\u002A,10*%
X123120000Y-84160000D03*
%TO.P,REF\u002A\u002A,11*%
X123120000Y-81620000D03*
%TO.P,REF\u002A\u002A,12*%
X123120000Y-79080000D03*
%TO.P,REF\u002A\u002A,13*%
X123120000Y-76540000D03*
%TO.P,REF\u002A\u002A,14*%
X123120000Y-74000000D03*
%TD*%
D15*
%TO.P,,2*%
%TO.N,N/C*%
X132076488Y-79489525D03*
%TD*%
D16*
%TO.P,E$8,1*%
%TO.N,N/C*%
X111365000Y-83040000D03*
%TO.P,E$8,2*%
X111365000Y-72880000D03*
%TD*%
D17*
%TO.P,,2*%
%TO.N,N/C*%
X108500000Y-63500000D03*
%TD*%
D18*
%TO.P,,1*%
%TO.N,N/C*%
X125887332Y-99000000D03*
%TD*%
D19*
%TO.P,REF\u002A\u002A,1*%
%TO.N,N/C*%
X106500000Y-74000000D03*
%TO.P,REF\u002A\u002A,2*%
X106500000Y-79125000D03*
%TD*%
D20*
%TO.P,REF\u002A\u002A,1*%
%TO.N,N/C*%
X131310000Y-83174000D03*
%TO.P,REF\u002A\u002A,2*%
X130040000Y-83174000D03*
%TO.P,REF\u002A\u002A,3*%
X128770000Y-83174000D03*
%TO.P,REF\u002A\u002A,4*%
X127500000Y-83174000D03*
%TO.P,REF\u002A\u002A,5*%
X127500000Y-88000000D03*
%TO.P,REF\u002A\u002A,6*%
X128770000Y-88000000D03*
%TO.P,REF\u002A\u002A,7*%
X130040000Y-88000000D03*
%TO.P,REF\u002A\u002A,8*%
X131310000Y-88000000D03*
%TD*%
D16*
%TO.P,,1*%
%TO.N,N/C*%
X111365000Y-83040000D03*
%TD*%
D18*
%TO.P,,1*%
%TO.N,N/C*%
X117387332Y-99000000D03*
%TD*%
D16*
%TO.P,,2*%
%TO.N,N/C*%
X125777841Y-77428886D03*
%TD*%
D21*
%TO.P,REF\u002A\u002A,1*%
%TO.N,N/C*%
X114000000Y-71912500D03*
%TO.P,REF\u002A\u002A,2*%
X114000000Y-70087500D03*
%TD*%
D16*
%TO.P,,2*%
%TO.N,N/C*%
X128496346Y-68100262D03*
%TD*%
D22*
%TO.P,REF\u002A\u002A,1*%
%TO.N,N/C*%
X131000000Y-73587500D03*
%TO.P,REF\u002A\u002A,2*%
X131000000Y-75412500D03*
%TD*%
D16*
%TO.P,,2*%
%TO.N,N/C*%
X106500000Y-69500000D03*
%TD*%
D23*
%TO.P,E$9,1*%
%TO.N,N/C*%
X106000000Y-86960000D03*
%TO.P,E$9,2*%
X106000000Y-92040000D03*
%TD*%
D17*
%TO.P,,2*%
%TO.N,N/C*%
X113500000Y-63500000D03*
%TD*%
D15*
%TO.P,,2*%
%TO.N,N/C*%
X126162360Y-80464146D03*
%TD*%
D24*
%TO.P,REF\u002A\u002A,1*%
%TO.N,N/C*%
X124509900Y-67750000D03*
%TO.P,REF\u002A\u002A,2*%
X124509900Y-65250000D03*
%TO.P,REF\u002A\u002A,3*%
X118490100Y-65250000D03*
%TO.P,REF\u002A\u002A,4*%
X118490100Y-67750000D03*
%TD*%
D25*
%TO.N,*%
X126055000Y-71500000D02*
X115412498Y-71500000D01*
D26*
X104500000Y-81000000D02*
X104500000Y-80000000D01*
D27*
X113762498Y-69850000D02*
X114000000Y-70087502D01*
D25*
X124532500Y-75412500D02*
X123120000Y-74000000D01*
X120000000Y-91000000D02*
X126500000Y-91000000D01*
D28*
X107500000Y-81500000D02*
X106500000Y-80500000D01*
D26*
X105375000Y-79125000D02*
X106500000Y-79125000D01*
D28*
X106500000Y-74500000D02*
X106500000Y-69500000D01*
D26*
X110000000Y-94000000D02*
X109000000Y-93000000D01*
D25*
X131000000Y-75412500D02*
X124532500Y-75412500D01*
X129500000Y-85000000D02*
X126000000Y-85000000D01*
D26*
X109000000Y-85000000D02*
X107500000Y-85000000D01*
D29*
X130699697Y-78718991D02*
X129980706Y-78000000D01*
X132105478Y-79401878D02*
X132120776Y-79386580D01*
X131310000Y-86190000D02*
X132380837Y-85119163D01*
D26*
X126129856Y-66035400D02*
X128122022Y-66035400D01*
D25*
X115500000Y-73412500D02*
X115500000Y-74000000D01*
D29*
X132380837Y-85119163D02*
X132380837Y-79677237D01*
X131310000Y-80810000D02*
X130699697Y-80199697D01*
X132380837Y-79677237D02*
X132105478Y-79401878D01*
D26*
X124509900Y-65250000D02*
X125344456Y-65250000D01*
D29*
X116849999Y-69849999D02*
X115000000Y-68000000D01*
D28*
X116241314Y-66500000D02*
X117491314Y-67750000D01*
D29*
X127500000Y-81801786D02*
X126162360Y-80464146D01*
D26*
X109000000Y-93000000D02*
X109000000Y-85000000D01*
D25*
X115500000Y-76540000D02*
X119203820Y-76540000D01*
D28*
X127944999Y-68651609D02*
X128496346Y-68100262D01*
D29*
X131310000Y-83174000D02*
X131310000Y-80810000D01*
D26*
X105500000Y-83000000D02*
X105500000Y-82000000D01*
D27*
X113350000Y-69850000D02*
X113762498Y-69850000D01*
D28*
X118500000Y-63500000D02*
X118500000Y-64000000D01*
D26*
X107500000Y-85000000D02*
X105500000Y-83000000D01*
D28*
X118490100Y-64009900D02*
X118490100Y-65250000D01*
D30*
X130040000Y-79540000D02*
X129250806Y-78750806D01*
D29*
X127500000Y-83174000D02*
X127500000Y-81801786D01*
D25*
X125160000Y-84160000D02*
X123120000Y-84160000D01*
D26*
X133500000Y-94000000D02*
X110000000Y-94000000D01*
D25*
X124509900Y-69690098D02*
X124349999Y-69849999D01*
D27*
X118500000Y-64000000D02*
X118490100Y-64009900D01*
D25*
X127500000Y-90000000D02*
X127500000Y-88000000D01*
D28*
X127944999Y-70475001D02*
X127944999Y-68651609D01*
D29*
X126348955Y-78000000D02*
X125777841Y-77428886D01*
D25*
X124509900Y-67750000D02*
X124509900Y-69690098D01*
D28*
X113500000Y-63500000D02*
X118500000Y-63500000D01*
D25*
X129937499Y-72524999D02*
X131000000Y-73587500D01*
D28*
X107500000Y-82000000D02*
X107500000Y-81500000D01*
X108540000Y-83040000D02*
X107500000Y-82000000D01*
D26*
X104500000Y-80000000D02*
X105375000Y-79125000D01*
D30*
X128770000Y-79409550D02*
X124960450Y-79409550D01*
D25*
X128500000Y-86500000D02*
X128500000Y-86000000D01*
D28*
X108500000Y-63500000D02*
X111500000Y-66500000D01*
D25*
X126300000Y-86700000D02*
X123120000Y-86700000D01*
D30*
X129250806Y-78750806D02*
X123449194Y-78750806D01*
D28*
X111365000Y-83040000D02*
X108540000Y-83040000D01*
X106500000Y-80500000D02*
X106500000Y-78625000D01*
D26*
X105500000Y-82000000D02*
X104500000Y-81000000D01*
D25*
X112332500Y-71912500D02*
X114000000Y-71912500D01*
X128500000Y-86000000D02*
X127000000Y-86000000D01*
D26*
X128503368Y-65654054D02*
X128503368Y-65250000D01*
D29*
X124349999Y-69849999D02*
X116849999Y-69849999D01*
D25*
X115412498Y-71500000D02*
X114000000Y-70087502D01*
X128770000Y-86770000D02*
X128500000Y-86500000D01*
X127944999Y-72524999D02*
X129937499Y-72524999D01*
D29*
X110500000Y-68000000D02*
X112587500Y-70087500D01*
X130699697Y-80199697D02*
X130699697Y-78718991D01*
D26*
X106500000Y-79125000D02*
X106500000Y-78625000D01*
D30*
X128770000Y-83174000D02*
X128770000Y-79409550D01*
D26*
X132250000Y-65250000D02*
X133500000Y-66500000D01*
D25*
X114000000Y-71912500D02*
X115500000Y-73412500D01*
X126000000Y-85000000D02*
X125160000Y-84160000D01*
X127000000Y-86000000D02*
X126300000Y-86700000D01*
D26*
X128122022Y-66035400D02*
X128503368Y-65654054D01*
D25*
X130040000Y-88000000D02*
X130040000Y-85540000D01*
D30*
X123449194Y-78750806D02*
X123120000Y-79080000D01*
X123120000Y-81250000D02*
X123120000Y-81620000D01*
X124960450Y-79409550D02*
X123120000Y-81250000D01*
D29*
X112587500Y-70087500D02*
X113762500Y-70087500D01*
D26*
X128503368Y-65250000D02*
X132250000Y-65250000D01*
D25*
X111365000Y-72880000D02*
X112332500Y-71912500D01*
X119203820Y-76540000D02*
X120000000Y-77336180D01*
D27*
X131310000Y-86190000D02*
X131500000Y-86000000D01*
D29*
X129980706Y-78000000D02*
X126348955Y-78000000D01*
D25*
X128770000Y-88000000D02*
X128770000Y-86770000D01*
D30*
X130040000Y-83174000D02*
X130040000Y-79540000D01*
D28*
X111500000Y-66500000D02*
X116241314Y-66500000D01*
D25*
X120000000Y-77336180D02*
X120000000Y-91000000D01*
D26*
X133500000Y-66500000D02*
X133500000Y-94000000D01*
D25*
X130040000Y-85540000D02*
X129500000Y-85000000D01*
D29*
X115000000Y-68000000D02*
X110500000Y-68000000D01*
D27*
X124350000Y-69850000D02*
X124349999Y-69849999D01*
D26*
X125344456Y-65250000D02*
X126129856Y-66035400D01*
D28*
X117491314Y-67750000D02*
X118490100Y-67750000D01*
D29*
X131310000Y-88000000D02*
X131310000Y-86190000D01*
D25*
X126500000Y-91000000D02*
X127500000Y-90000000D01*
%TD*%
M02*
