M48
; DRILL file {KiCad 9.0.4} date 2026-02-05T15:02:22+0100
; FORMAT={-:-/ absolute / inch / decimal}
; #@! TF.CreationDate,2026-02-05T15:02:22+01:00
; #@! TF.GenerationSoftware,Kicad,Pcbnew,9.0.4
; #@! TF.FileFunction,Plated,1,2,PTH
FMAT,2
INCH
; #@! TA.AperFunction,Plated,PTH,ComponentDrill
T1C0.0260
; #@! TA.AperFunction,Plated,PTH,ComponentDrill
T2C0.0315
; #@! TA.AperFunction,Plated,PTH,ComponentDrill
T3C0.0320
; #@! TA.AperFunction,Plated,PTH,ComponentDrill
T4C0.0390
; #@! TA.AperFunction,Plated,PTH,ComponentDrill
T5C0.0433
; #@! TA.AperFunction,Plated,PTH,ComponentDrill
T6C0.0531
%
G90
G05
T1
X4.1732Y-3.4236
X4.1732Y-3.6236
T2
X4.967Y-3.1679
X5.1999Y-3.1295
T3
X4.5472Y-2.9134
X4.5472Y-3.0134
X4.5472Y-3.1134
X4.5472Y-3.2134
X4.5472Y-3.3134
X4.5472Y-3.4134
X4.5472Y-3.5134
X4.8472Y-2.9134
X4.8472Y-3.0134
X4.8472Y-3.1134
X4.8472Y-3.2134
X4.8472Y-3.3134
X4.8472Y-3.4134
X4.8472Y-3.5134
T4
X4.1929Y-2.7362
X4.3844Y-2.8693
X4.3844Y-3.2693
X4.3844Y-3.2693
X4.9519Y-3.0484
X5.0589Y-2.6811
T5
X4.2717Y-2.5
X4.4685Y-2.5
T6
X4.6215Y-3.8976
X4.9562Y-3.8976
M30
